<?xml version="1.0" encoding="UTF-8"?>
<svg xmlns="http://www.w3.org/2000/svg" viewBox="0 0 1350 321.17">
  <path d="M93.2,89.03c-.87.87-1.31,1.92-1.31,3.14v4.41c0,1.22.43,2.26,1.3,3.14.87.87,1.92,1.31,3.15,1.31s2.24-.44,3.11-1.31c.87-.87,1.3-1.92,1.3-3.14v-8.85h-4.4c-1.22,0-2.27.44-3.14,1.31Z" fill="#ffffff"/>
  <path d="M142.47,30.08C70.39,30.08,11.96,88.51,11.96,160.58s58.43,130.51,130.51,130.51,130.51-58.43,130.51-130.51S214.54,30.08,142.47,30.08ZM78.6,89.93c0-4.24,1.53-7.88,4.58-10.93,3.05-3.05,6.7-4.57,10.92-4.57h8.89c4.22,0,7.86,1.53,10.92,4.58,3.05,3.05,4.58,6.69,4.58,10.92v11.09c0,1.21-.43,2.25-1.3,3.13-.86.88-1.91,1.32-3.15,1.32h-8.85c-2.62,0-4.1-1.48-4.44-4.44-.15,1.47-.65,2.57-1.51,3.32-.85.75-2.08,1.12-3.69,1.12-1.88,0-3.7-.86-5.46-2.59-1.76-1.72-2.64-3.82-2.64-6.3v-4.41c0-2.45.88-4.55,2.64-6.28,1.76-1.74,3.84-2.61,6.25-2.61h8.85v15.54c0,1.47.74,2.2,2.2,2.2h4.44c1.47,0,2.2-.73,2.2-2.2v-8.89c0-2.98-1.08-5.57-3.23-7.76-2.15-2.19-4.76-3.29-7.82-3.29h-8.89c-2.98,0-5.57,1.07-7.76,3.22-2.2,2.15-3.29,4.76-3.29,7.83v8.89c0,2.98,1.08,5.57,3.23,7.76,2.15,2.2,4.77,3.29,7.84,3.29h15.52v4.44h-15.52c-4.24,0-7.89-1.53-10.94-4.58-3.05-3.05-4.58-6.69-4.58-10.92v-8.89ZM212.34,198.16h-89.16v32.29c0,11.91-9.34,21.63-21.08,22.26l-1.21.03h-22.29v-111.45c0-12.31,9.98-22.29,22.29-22.29h22.29v34.58h66.87c12.31,0,22.29,9.98,22.29,22.29v22.29ZM212.34,96.72c0,12.31-9.98,22.29-22.29,22.29h-66.87v-22.29c0-.4.01-.81.03-1.21.63-11.75,10.35-21.08,22.26-21.08h66.87v22.29Z" fill="#ffffff"/>
  <path d="M325.58,234.32V86.85c0-8.87,6.53-15.66,15.14-15.66h74.39c8.09,0,14.36,6.26,14.36,14.09s-6.26,13.83-14.36,13.83h-58.2v50.64h50.89c7.83,0,13.83,6,13.83,13.83s-6,13.57-13.83,13.57h-50.89v57.16c0,8.61-6.53,15.66-15.66,15.66s-15.66-7.05-15.66-15.66Z" fill="#ffffff"/>
  <path d="M507.24,235.36c-11.48,10.18-24.01,15.92-37.32,15.92-20.88,0-34.98-14.62-34.98-32.63,0-16.44,9.92-26.36,26.62-32.36,13.57-4.7,31.06-6.26,45.68-7.83v-7.31c0-11.48-7.05-16.18-20.88-16.18-8.61,0-15.4,2.09-20.1,4.18-3.91,1.31-7.05,2.35-9.13,2.35-7.31,0-12.53-5.22-12.53-12.01,0-4.44,2.09-8.87,7.83-12.01,8.87-4.7,24.27-8.35,37.58-8.35,28.19,0,45.68,14.09,45.68,38.89v67.34c0,8.09-6.26,14.62-14.36,14.62-7.57,0-14.09-6.53-14.09-14.62ZM478.79,227.27c8.87,0,19.57-4.44,28.45-11.22v-18.79c-9.14,1.3-18.53,2.61-25.84,4.44-12.53,2.87-17.49,7.05-17.49,13.83s5.74,11.75,14.88,11.75Z" fill="#ffffff"/>
  <path d="M568.58,234.58v-89c0-8.35,6.53-14.88,14.88-14.88s14.88,6.53,14.88,14.88v6.53c9.66-16.44,21.4-22.45,33.41-22.45,8.87,0,14.88,6,14.88,14.09,0,8.87-6.79,15.14-14.88,15.14-12.01,0-24.27,3.65-33.41,18.01v57.68c0,8.35-6.79,15.4-14.88,15.4s-14.88-7.05-14.88-15.4Z" fill="#ffffff"/>
  <path d="M666.2,234.58v-88.74c0-8.35,6.79-15.14,14.88-15.14s14.88,6.79,14.88,15.14v.52c8.61-10.96,19.58-17.49,34.19-17.49,13.57,0,27.15,5.74,33.93,19.57,10.44-13.31,22.45-19.57,38.37-19.57,20.1,0,39.15,12.01,39.15,41.76v63.95c0,8.35-6.79,15.4-14.88,15.4s-14.88-7.05-14.88-15.4v-57.68c0-16.44-9.39-21.66-19.31-21.66s-18.27,6.26-23.75,16.18v63.16c0,8.35-6.79,15.4-14.88,15.4s-14.88-7.05-14.88-15.4v-57.94c0-16.18-9.4-21.4-19.06-21.4-10.18,0-18.53,6.26-24.01,16.7v62.64c0,8.35-6.53,15.4-14.88,15.4s-14.88-7.05-14.88-15.4Z" fill="#ffffff"/>
  <path d="M938.44,235.36c-11.48,10.18-24.01,15.92-37.32,15.92-20.88,0-34.98-14.62-34.98-32.63,0-16.44,9.92-26.36,26.62-32.36,13.57-4.7,31.06-6.26,45.68-7.83v-7.31c0-11.48-7.05-16.18-20.88-16.18-8.61,0-15.4,2.09-20.1,4.18-3.91,1.31-7.05,2.35-9.13,2.35-7.31,0-12.53-5.22-12.53-12.01,0-4.44,2.09-8.87,7.83-12.01,8.87-4.7,24.27-8.35,37.58-8.35,28.19,0,45.68,14.09,45.68,38.89v67.34c0,8.09-6.26,14.62-14.36,14.62-7.57,0-14.09-6.53-14.09-14.62ZM909.99,227.27c8.87,0,19.57-4.44,28.45-11.22v-18.79c-9.14,1.3-18.53,2.61-25.84,4.44-12.53,2.87-17.49,7.05-17.49,13.83s5.74,11.75,14.88,11.75Z" fill="#ffffff"/>
  <path d="M1003.43,233.01V85.54c0-8.87,6.52-15.66,15.66-15.66s15.66,6.79,15.66,15.66v135.2h57.16c8.09,0,14.09,6,14.09,13.83s-6,14.09-14.09,14.09h-73.08c-8.87,0-15.4-6.79-15.4-15.66Z" fill="#ffffff"/>
  <path d="M1191.35,235.36c-11.48,10.18-24.01,15.92-37.32,15.92-20.88,0-34.98-14.62-34.98-32.63,0-16.44,9.92-26.36,26.62-32.36,13.57-4.7,31.06-6.26,45.68-7.83v-7.31c0-11.48-7.05-16.18-20.88-16.18-8.61,0-15.4,2.09-20.1,4.18-3.92,1.31-7.05,2.35-9.14,2.35-7.31,0-12.53-5.22-12.53-12.01,0-4.44,2.09-8.87,7.83-12.01,8.87-4.7,24.27-8.35,37.59-8.35,28.19,0,45.68,14.09,45.68,38.89v67.34c0,8.09-6.26,14.62-14.36,14.62-7.57,0-14.09-6.53-14.09-14.62ZM1162.91,227.27c8.87,0,19.58-4.44,28.45-11.22v-18.79c-9.14,1.3-18.53,2.61-25.84,4.44-12.53,2.87-17.49,7.05-17.49,13.83s5.74,11.75,14.88,11.75Z" fill="#ffffff"/>
  <path d="M1259.74,213.7v-56.9h-10.44c-5.22,0-9.4-3.65-9.4-8.61,0-3.13,1.3-5.22,4.7-8.35l27.41-23.49c3.13-2.87,5.22-4.7,8.87-4.7,4.44,0,8.61,3.13,8.61,10.44v9.4h33.93c6.79,0,12.79,5.48,12.79,12.79s-6,12.53-12.79,12.53h-33.93v51.94c0,9.92,5.74,15.4,15.14,15.4,5.48,0,9.66-1.31,13.05-2.61,2.61-1.05,5.22-1.83,8.09-2.09,7.31-.26,12.27,6,12.27,12.79,0,5.48-3.39,9.13-9.14,12.01-5.22,2.87-15.14,6.53-28.45,6.53-27.4,0-40.72-13.83-40.72-37.06Z" fill="#ffffff"/>
</svg>
