<?xml version="1.0" encoding="UTF-8"?>
<svg xmlns="http://www.w3.org/2000/svg" viewBox="0 18 285 285">
  <circle cx="142.47" cy="160.58" r="117.95" fill="#ffffff"/>
  <path d="M93.2,89.03c-.87.87-1.31,1.92-1.31,3.14v4.41c0,1.22.43,2.26,1.3,3.14.87.87,1.92,1.31,3.15,1.31s2.24-.44,3.11-1.31c.87-.87,1.3-1.92,1.3-3.14v-8.85h-4.4c-1.22,0-2.27.44-3.14,1.31Z" fill="#10069f"/>
  <path d="M142.47,30.08C70.39,30.08,11.96,88.51,11.96,160.58s58.43,130.51,130.51,130.51,130.51-58.43,130.51-130.51S214.54,30.08,142.47,30.08ZM78.6,89.93c0-4.24,1.53-7.88,4.58-10.93,3.05-3.05,6.7-4.57,10.92-4.57h8.89c4.22,0,7.86,1.53,10.92,4.58,3.05,3.05,4.58,6.69,4.58,10.92v11.09c0,1.21-.43,2.25-1.3,3.13-.86.88-1.91,1.32-3.15,1.32h-8.85c-2.62,0-4.1-1.48-4.44-4.44-.15,1.47-.65,2.57-1.51,3.32-.85.75-2.08,1.12-3.69,1.12-1.88,0-3.7-.86-5.46-2.59-1.76-1.72-2.64-3.82-2.64-6.3v-4.41c0-2.45.88-4.55,2.64-6.28,1.76-1.74,3.84-2.61,6.25-2.61h8.85v15.54c0,1.47.74,2.2,2.2,2.2h4.44c1.47,0,2.2-.73,2.2-2.2v-8.89c0-2.98-1.08-5.57-3.23-7.76-2.15-2.19-4.76-3.29-7.82-3.29h-8.89c-2.98,0-5.57,1.07-7.76,3.22-2.2,2.15-3.29,4.76-3.29,7.83v8.89c0,2.98,1.08,5.57,3.23,7.76,2.15,2.2,4.77,3.29,7.84,3.29h15.52v4.44h-15.52c-4.24,0-7.89-1.53-10.94-4.58-3.05-3.05-4.58-6.69-4.58-10.92v-8.89ZM212.34,198.16h-89.16v32.29c0,11.91-9.34,21.63-21.08,22.26l-1.21.03h-22.29v-111.45c0-12.31,9.98-22.29,22.29-22.29h22.29v34.58h66.87c12.31,0,22.29,9.98,22.29,22.29v22.29ZM212.34,96.72c0,12.31-9.98,22.29-22.29,22.29h-66.87v-22.29c0-.4.01-.81.03-1.21.63-11.75,10.35-21.08,22.26-21.08h66.87v22.29Z" fill="#10069f"/>
</svg>
